<?xml version="1.0" standalone="no"?>
<!DOCTYPE svg PUBLIC "-//W3C//DTD SVG 20010904//EN"
 "http://www.w3.org/TR/2001/REC-SVG-20010904/DTD/svg10.dtd">
<svg version="1.0" xmlns="http://www.w3.org/2000/svg"
 width="1280.000000pt" height="1198.000000pt" viewBox="0 0 1280.000000 1198.000000"
 preserveAspectRatio="xMidYMid meet">
<metadata>
Created by potrace 1.15, written by Peter Selinger 2001-2017
</metadata>
<g transform="translate(0.000000,1198.000000) scale(0.100000,-0.100000)"
fill="#ffffff" stroke="none">
<path d="M9450 10843 c-48 -32 -72 -58 -154 -168 -254 -340 -422 -603 -593
-930 -253 -483 -343 -774 -314 -1014 6 -50 15 -101 20 -114 9 -22 -52 -85
-754 -787 l-764 -763 -61 57 c-172 159 -462 353 -722 483 -448 223 -910 341
-1414 359 -708 25 -1422 -177 -2009 -569 -208 -139 -310 -223 -498 -407 -303
-295 -510 -583 -697 -965 -522 -1070 -447 -2359 195 -3365 438 -685 1086
-1184 1860 -1433 328 -105 669 -157 1034 -157 800 1 1537 264 2171 774 114 91
406 387 505 511 396 496 644 1084 732 1735 28 206 25 680 -4 885 -94 649 -341
1224 -739 1718 l-74 92 768 767 767 766 70 -15 c151 -33 373 7 635 114 118 48
487 235 650 328 289 166 810 533 857 604 14 21 23 49 23 74 0 32 -6 45 -36 72
-20 18 -63 43 -96 56 -63 23 -78 22 -214 -17 -18 -5 -20 -2 -16 25 2 17 -1 38
-9 47 -31 38 -69 46 -293 59 -243 15 -281 22 -372 65 -132 64 -171 180 -177
531 -3 184 -5 199 -28 244 -19 38 -49 70 -66 70 -1 0 3 23 8 51 8 44 6 61 -12
108 -40 109 -112 152 -179 109z m-4480 -3198 c521 -67 997 -251 1420 -549 98
-69 290 -224 290 -234 0 -9 -593 -602 -602 -602 -4 0 -43 29 -87 64 -71 58
-212 155 -267 184 -13 7 -26 31 -37 69 -28 104 -85 163 -140 149 -15 -3 -45
-22 -66 -42 l-39 -35 -104 36 c-395 139 -860 164 -1263 68 -799 -189 -1427
-785 -1664 -1578 -63 -211 -91 -410 -91 -650 1 -358 74 -678 230 -1000 261
-540 724 -953 1295 -1155 276 -97 594 -140 888 -119 176 12 238 22 397 60 687
168 1265 659 1544 1312 215 504 244 1080 80 1598 l-36 113 27 22 c69 55 85
131 38 177 -32 30 -101 62 -155 72 -33 6 -42 15 -70 64 -41 73 -123 195 -165
247 -18 23 -33 45 -33 50 0 5 135 144 300 309 346 346 292 325 414 166 357
-467 576 -1012 641 -1592 19 -175 19 -524 0 -699 -69 -619 -318 -1205 -718
-1690 -97 -117 -301 -319 -427 -421 -460 -375 -983 -600 -1590 -686 -176 -24
-614 -24 -790 0 -714 101 -1322 400 -1816 892 -305 304 -523 626 -692 1025
-307 723 -326 1583 -50 2330 57 155 180 412 263 549 413 684 1087 1195 1853
1405 202 56 343 81 627 110 87 9 477 -3 595 -19z m-151 -1550 c54 -8 105 -17
112 -19 8 -3 33 -10 55 -16 l42 -10 -67 -118 c-244 -425 -375 -846 -334 -1069
l10 -53 -68 0 c-131 0 -238 -64 -294 -176 -26 -51 -30 -70 -30 -139 1 -102 27
-166 96 -230 71 -66 127 -88 221 -89 66 0 85 5 141 32 108 54 177 165 177 289
0 53 1 55 23 49 51 -15 189 -18 268 -7 232 33 556 158 853 330 49 28 90 50 91
49 2 -2 11 -39 20 -83 23 -104 32 -413 15 -528 -92 -644 -550 -1159 -1174
-1322 -144 -37 -266 -48 -455 -42 -300 9 -554 92 -816 264 -130 86 -336 291
-420 418 -117 178 -203 380 -245 580 -28 130 -37 376 -20 511 32 257 127 507
275 721 77 110 253 292 360 371 195 144 448 248 692 286 119 19 351 19 472 1z"/>
</g>
</svg>
